<svg width="121" height="11" viewBox="0 0 121 11" fill="none" xmlns="http://www.w3.org/2000/svg">
<path d="M2 9C7.46597 7.33669 12.9096 5.39411 18.4543 4.31514C20.0603 4.00263 24.1119 2.56458 25.2091 5.1861C26.2375 7.64333 26.7804 8.31837 29.0127 8.34028C34.5714 8.39485 40.1246 5.94508 45.5906 4.7354C48.0991 4.18024 50.6288 3.79603 53.1612 3.5485C54.1093 3.45583 55.763 2.99388 56.665 3.59491C57.6678 4.26314 57.1789 6.10225 58.8058 6.51445C62.8007 7.52658 66.9863 6.36723 70.9088 5.32273C75.6834 4.0513 80.4879 2.13365 85.3752 2.13365C86.1398 2.13365 87.5862 1.93059 88.0015 3.20101C88.2541 3.97374 88.1093 4.91236 88.3434 5.70586C89.6271 10.0569 98.1192 6.63989 100.224 6.13874C106.46 4.65404 112.736 3.21851 119 2" stroke="#46464A" stroke-width="3" stroke-linecap="round" stroke-linejoin="round"/>
</svg>
